<?xml version="1.0" standalone="no"?>
<svg xmlns="http://www.w3.org/2000/svg" width="24" height="24"><rect width="24" height="24" opacity="0"></rect><g><path d="M8.95 10.01L4.25 10.01Q3.94 10.01 3.71 10.22Q3.48 10.44 3.48 10.75Q3.48 11.06 3.71 11.28Q3.94 11.5 4.25 11.5L10.2 11.5Q10.73 11.5 11.11 11.11Q11.5 10.73 11.5 10.2L11.5 4.22Q11.5 3.91 11.27 3.7Q11.04 3.48 10.73 3.48Q10.42 3.48 10.2 3.7Q9.98 3.91 9.98 4.22L9.98 8.93L4.03 2.98Q3.82 2.76 3.5 2.76Q3.19 2.76 2.98 2.98Q2.76 3.19 2.76 3.5Q2.76 3.82 2.98 4.03ZM12.5 19.75Q12.5 20.06 12.72 20.28Q12.94 20.5 13.25 20.5Q13.56 20.5 13.78 20.28Q13.99 20.06 13.99 19.75L13.99 15.07L19.94 21.02Q20.16 21.24 20.47 21.24Q20.78 21.24 21 21.02Q21.24 20.81 21.24 20.5Q21.24 20.18 21 19.97L15.02 13.99L19.75 13.99Q20.06 13.99 20.28 13.78Q20.5 13.56 20.5 13.25Q20.5 12.94 20.28 12.71Q20.06 12.48 19.75 12.48L13.8 12.48Q13.27 12.48 12.89 12.86Q12.5 13.25 12.5 13.8L12.5 19.75Z" fill="rgba(0,0,0,0.9019607843137255)"></path></g></svg>