<?xml version="1.0" standalone="no"?>
<svg xmlns="http://www.w3.org/2000/svg" width="24" height="24"><rect width="24" height="24" opacity="0"></rect><g><path d="M11.76 4.99Q12.07 4.99 12.29 4.78Q12.5 4.56 12.5 4.25Q12.5 3.94 12.29 3.72Q12.07 3.5 11.76 3.5L3.29 3.5Q2.98 3.5 2.76 3.72Q2.54 3.94 2.54 4.25Q2.54 4.56 2.76 4.78Q2.98 4.99 3.29 4.99L11.76 4.99ZM12.5 10.3Q12.5 9.98 12.29 9.76Q12.07 9.53 11.76 9.53L3.29 9.53Q2.98 9.53 2.76 9.76Q2.54 9.98 2.54 10.3Q2.54 10.61 2.76 10.82Q2.98 11.04 3.29 11.04L11.76 11.04Q12.07 11.04 12.29 10.82Q12.5 10.61 12.5 10.3ZM8.98 13.87Q8.76 13.66 8.45 13.66Q8.14 13.66 7.92 13.87L6.26 15.53L4.66 13.92L4.61 13.87Q4.39 13.7 4.09 13.72Q3.79 13.73 3.6 13.92Q3.41 14.11 3.37 14.38Q3.34 14.64 3.5 14.86Q3.55 14.95 3.6 14.98L5.21 16.58L3.65 18.14Q3.43 18.36 3.43 18.67Q3.43 18.98 3.65 19.2Q3.84 19.44 4.18 19.44Q4.51 19.44 4.7 19.2L6.26 17.64L7.87 19.27Q8.09 19.49 8.4 19.49Q8.71 19.49 8.93 19.27Q9.14 19.03 9.14 18.72Q9.14 18.41 8.93 18.19L7.32 16.58L8.98 14.93Q9.19 14.71 9.19 14.4Q9.19 14.09 8.98 13.87Z" fill="rgba(0,0,0,0.9019607843137255)"></path><path d="M18.34 3.89Q17.83 3.94 17.51 4.32Q17.18 4.7 17.21 5.21L17.21 12.86Q17.18 13.44 17 13.76Q16.82 14.09 16.51 14.26Q16.2 14.42 15.53 14.69Q15.48 14.71 15.41 14.74Q15.34 14.76 15.26 14.78Q14.09 15.24 13.33 15.76Q12.58 16.27 12.26 17.16Q11.9 18.1 12.28 18.91Q12.65 19.73 13.55 20.16Q14.45 20.59 15.5 20.45Q16.78 20.3 17.52 19.62Q18.26 18.94 18.52 18.06Q18.77 17.18 18.72 16.37L18.72 6.94Q18.74 6.67 18.84 6.52Q18.94 6.36 19.1 6.26Q19.27 6.17 19.46 6.1Q19.87 5.98 20.35 5.69Q20.78 5.42 21.06 5.08Q21.34 4.73 21.42 4.33Q21.5 3.94 21.41 3.5L18.34 3.89ZM15.34 18.98Q14.81 19.03 14.38 18.9Q13.94 18.77 13.73 18.46Q13.51 18.14 13.66 17.69Q13.85 17.16 14.52 16.78Q15.19 16.39 16.99 15.65Q17.06 15.6 17.21 15.55L17.21 16.61Q17.21 17.4 16.84 18.13Q16.46 18.86 15.34 18.98Z" fill="rgba(0,0,0,0.9019607843137255)"></path></g></svg>