<?xml version="1.0" standalone="no"?>
<svg xmlns="http://www.w3.org/2000/svg" width="24" height="24"><rect width="24" height="24" opacity="0"></rect><g><path d="M3.84 6.79Q3.48 6.58 3.11 6.65Q2.74 6.72 2.48 7.02Q2.23 7.32 2.23 7.73L2.23 16.27Q2.23 16.68 2.48 16.97Q2.74 17.26 3.11 17.33Q3.48 17.4 3.84 17.21L11.23 12.94Q11.59 12.72 11.71 12.36Q11.83 12 11.71 11.63Q11.59 11.26 11.23 11.06L3.84 6.79ZM13.85 6.79Q13.49 6.58 13.1 6.65Q12.72 6.72 12.47 7.02Q12.22 7.32 12.22 7.73L12.22 16.27Q12.22 16.68 12.47 16.97Q12.72 17.26 13.1 17.33Q13.49 17.4 13.85 17.21L21.24 12.94Q21.6 12.72 21.72 12.36Q21.84 12 21.72 11.63Q21.6 11.26 21.24 11.06L13.85 6.79Z" fill="rgba(0,0,0,0.9019607843137255)"></path></g></svg>