<?xml version="1.0" standalone="no"?>
<svg xmlns="http://www.w3.org/2000/svg" width="24" height="24"><rect width="24" height="24" opacity="0"></rect><g><path d="M2.38 9.65Q2.38 9.96 2.59 10.18Q2.81 10.39 3.12 10.39Q3.43 10.39 3.66 10.18Q3.89 9.96 3.89 9.65L3.89 4.94L9.14 10.22Q9.36 10.44 9.67 10.44Q9.98 10.44 10.2 10.22Q10.44 10.01 10.44 9.7Q10.44 9.38 10.2 9.17L4.92 3.86L9.62 3.86Q9.94 3.86 10.15 3.65Q10.37 3.43 10.37 3.12Q10.37 2.81 10.15 2.59Q9.94 2.38 9.62 2.38L3.67 2.38Q3.14 2.38 2.76 2.75Q2.38 3.12 2.38 3.67L2.38 9.65ZM13.63 20.88Q13.63 21.19 13.85 21.41Q14.06 21.62 14.38 21.62L20.33 21.62Q20.88 21.62 21.25 21.24Q21.62 20.86 21.62 20.33L21.62 14.35Q21.62 14.04 21.41 13.82Q21.19 13.61 20.88 13.61Q20.57 13.61 20.34 13.82Q20.11 14.04 20.11 14.35L20.11 19.03L14.86 13.78Q14.64 13.56 14.33 13.56Q14.02 13.56 13.8 13.78Q13.56 13.99 13.56 14.3Q13.56 14.62 13.8 14.83L19.06 20.11L14.38 20.11Q14.06 20.11 13.85 20.34Q13.63 20.57 13.63 20.88Z" fill="rgba(0,0,0,0.9019607843137255)"></path></g></svg>