<?xml version="1.0" standalone="no"?>
<svg xmlns="http://www.w3.org/2000/svg" width="24" height="24"><rect width="24" height="24" opacity="0"></rect><g><path d="M8.52 0.5Q7.7 0.5 7.02 0.91Q6.34 1.32 5.93 2Q5.52 2.69 5.52 3.5L5.52 20.5Q5.52 21.31 5.92 22Q6.31 22.68 7.01 23.09Q7.7 23.5 8.52 23.5L15.5 23.5Q16.32 23.5 17 23.09Q17.69 22.68 18.1 22Q18.5 21.31 18.5 20.5L18.5 3.5Q18.5 2.69 18.1 2Q17.69 1.32 17 0.91Q16.32 0.5 15.5 0.5L8.52 0.5ZM17.02 20.5Q17.02 21.12 16.57 21.56Q16.13 22.01 15.5 22.01L8.52 22.01Q7.9 22.01 7.45 21.56Q7.01 21.12 7.01 20.5L7.01 3.5Q7.01 2.88 7.45 2.44Q7.9 1.99 8.52 1.99L15.5 1.99Q16.13 1.99 16.57 2.44Q17.02 2.88 17.02 3.5L17.02 20.5Z" fill="rgba(0,0,0,0.9019607843137255)"></path><path d="M22.51 9.14Q22.15 8.14 21.55 7.13Q20.95 6.12 20.04 5.26Q19.9 5.14 19.72 5.14Q19.54 5.14 19.4 5.27Q19.27 5.4 19.27 5.59L19.27 9.02Q19.27 9.22 19.39 9.35Q19.51 9.48 19.7 9.48L21.02 9.48Q21.43 10.34 21.44 11.87Q21.46 13.39 21 14.95Q20.54 16.51 19.63 17.5Q19.42 17.74 19.43 18.05Q19.44 18.36 19.68 18.55Q19.87 18.77 20.18 18.77Q20.5 18.77 20.74 18.53Q21.86 17.3 22.42 15.54Q22.97 13.78 22.97 12.04Q22.97 10.3 22.51 9.14ZM2.95 14.42Q2.54 13.56 2.53 12.04Q2.52 10.51 2.98 8.94Q3.43 7.37 4.34 6.38Q4.54 6.17 4.54 5.86Q4.54 5.54 4.32 5.33Q4.08 5.14 3.77 5.14Q3.46 5.14 3.24 5.38Q2.11 6.6 1.56 8.38Q1.01 10.15 1.02 11.89Q1.03 13.63 1.51 14.78Q1.85 15.77 2.45 16.78Q3.05 17.78 3.96 18.65Q4.1 18.77 4.28 18.77Q4.46 18.77 4.6 18.64Q4.73 18.5 4.73 18.31L4.73 14.88Q4.73 14.69 4.6 14.56Q4.46 14.42 4.27 14.42L2.95 14.42Z" fill="rgba(0,0,0,0.9019607843137255)"></path></g></svg>