<?xml version="1.0" standalone="no"?>
<svg xmlns="http://www.w3.org/2000/svg" width="24" height="24"><rect width="24" height="24" opacity="0"></rect><g mask="url(#hms_mask_0)"><path d="M14.02 8.69Q13.8 8.47 13.5 8.46Q13.2 8.45 12.98 8.66Q12.79 8.86 12.79 9.16Q12.79 9.46 12.98 9.67Q13.32 10.03 13.51 10.5Q13.7 10.97 13.7 11.47Q13.7 11.98 13.51 12.44Q13.32 12.91 12.96 13.27Q12.74 13.46 12.74 13.76Q12.74 14.06 12.96 14.28Q13.18 14.5 13.48 14.5Q13.78 14.5 13.99 14.28Q14.54 13.73 14.84 13Q15.14 12.26 15.14 11.47Q15.14 10.68 14.86 9.96Q14.57 9.24 14.02 8.69ZM16.75 6.07Q16.56 5.88 16.26 5.88Q15.96 5.88 15.74 6.07Q15.53 6.29 15.53 6.59Q15.53 6.89 15.74 7.1Q16.61 7.94 17.08 9.08Q17.54 10.22 17.54 11.45Q17.54 12.67 17.08 13.8Q16.61 14.93 15.74 15.79Q15.53 16.01 15.54 16.31Q15.55 16.61 15.74 16.8Q15.96 17.04 16.26 17.03Q16.56 17.02 16.78 16.8Q17.83 15.74 18.41 14.35Q18.98 12.96 18.98 11.45Q18.98 9.94 18.4 8.53Q17.81 7.13 16.75 6.07ZM19.78 3.65Q19.58 3.43 19.27 3.43Q18.96 3.43 18.77 3.62Q18.55 3.84 18.55 4.14Q18.55 4.44 18.77 4.66Q20.11 6 20.84 7.76Q21.58 9.53 21.58 11.45Q21.58 13.37 20.84 15.12Q20.11 16.87 18.79 18.22Q18.55 18.43 18.56 18.73Q18.58 19.03 18.79 19.25Q18.98 19.46 19.28 19.45Q19.58 19.44 19.8 19.25Q21.34 17.69 22.18 15.67Q23.02 13.66 23.02 11.45Q23.02 9.24 22.18 7.22Q21.34 5.21 19.78 3.65ZM10.25 17.86Q10.58 17.69 10.8 17.4Q11.02 17.11 11.06 16.75Q11.09 16.66 11.09 16.49L11.09 6.5Q11.09 6.07 10.86 5.71Q10.63 5.35 10.25 5.16Q9.91 4.99 9.54 5.02Q9.17 5.04 8.86 5.23L8.66 5.35L5.38 8.04L2.86 8.04Q2.09 8.04 1.54 8.59Q0.98 9.14 0.98 9.91L0.98 13.08Q0.98 13.85 1.52 14.4Q2.06 14.95 2.86 14.95L5.38 14.95L8.66 17.64Q9 17.93 9.42 17.99Q9.84 18.05 10.25 17.86ZM5.88 9.46L9.65 6.48L9.58 16.51L5.88 13.51L2.86 13.51Q2.69 13.51 2.56 13.38Q2.42 13.25 2.42 13.08L2.42 9.91Q2.42 9.72 2.54 9.6Q2.66 9.48 2.86 9.48Z" fill="rgba(0,0,0,0.9019607843137255)"></path></g><defs><mask id="hms_mask_0"><rect width="24" height="24" fill="#ffffff"></rect><g><path d="M5.16 2.28Q4.94 2.04 4.64 1.92Q4.34 1.8 4.01 1.8Q3.31 1.8 2.83 2.28Q2.59 2.5 2.47 2.8Q2.35 3.1 2.35 3.43Q2.35 4.13 2.83 4.61L19.94 21.72Q20.47 22.2 21.14 22.2Q21.82 22.2 22.3 21.72Q22.78 21.26 22.78 20.57Q22.78 19.87 22.3 19.39L5.16 2.28Z" fill="#000000"></path></g></mask></defs><g><path d="M3.53 2.98Q3.36 3.17 3.36 3.43Q3.36 3.7 3.53 3.89L20.66 21.02Q20.86 21.22 21.12 21.22Q21.38 21.22 21.6 21.02Q21.79 20.83 21.79 20.56Q21.79 20.28 21.6 20.11L4.46 2.98Q4.22 2.78 4 2.78Q3.77 2.78 3.53 2.98Z" fill="rgba(0,0,0,0.9019607843137255)"></path></g></svg>