<?xml version="1.0" standalone="no"?>
<svg xmlns="http://www.w3.org/2000/svg" width="24" height="24"><rect width="24" height="24" opacity="0"></rect><g><path d="M0.5 15.48Q0.5 16.3 0.91 16.98Q1.32 17.66 2 18.07Q2.69 18.48 3.5 18.48L20.5 18.48Q21.31 18.48 22 18.08Q22.68 17.69 23.09 16.99Q23.5 16.3 23.5 15.48L23.5 8.5Q23.5 7.68 23.09 7Q22.68 6.31 22 5.9Q21.31 5.5 20.5 5.5L3.5 5.5Q2.69 5.5 2 5.9Q1.32 6.31 0.91 7Q0.5 7.68 0.5 8.5L0.5 15.48ZM20.5 6.98Q21.12 6.98 21.56 7.43Q22.01 7.87 22.01 8.5L22.01 15.48Q22.01 16.1 21.56 16.55Q21.12 16.99 20.5 16.99L3.5 16.99Q2.88 16.99 2.44 16.55Q1.99 16.1 1.99 15.48L1.99 8.5Q1.99 7.87 2.44 7.43Q2.88 6.98 3.5 6.98L20.5 6.98Z" fill="rgba(0,0,0,0.9019607843137255)"></path><path d="M9.12 1.49Q8.11 1.85 7.12 2.45Q6.12 3.05 5.26 3.96Q5.14 4.1 5.14 4.28Q5.14 4.46 5.27 4.6Q5.4 4.73 5.59 4.73L9.02 4.73Q9.22 4.73 9.35 4.6Q9.48 4.46 9.48 4.3L9.48 2.98Q10.34 2.57 11.87 2.56Q13.39 2.54 14.95 3Q16.51 3.46 17.5 4.37Q17.74 4.58 18.05 4.57Q18.36 4.56 18.55 4.32Q18.74 4.15 18.77 3.86Q18.79 3.58 18.55 3.29L18.53 3.26Q17.3 2.14 15.54 1.58Q13.78 1.03 12.04 1.03Q10.3 1.03 9.12 1.49ZM14.42 21.05Q13.54 21.46 12.01 21.47Q10.49 21.48 8.93 21.02Q7.37 20.57 6.38 19.66Q6.17 19.44 5.86 19.45Q5.54 19.46 5.33 19.68Q5.11 19.92 5.12 20.22Q5.14 20.52 5.38 20.76Q6.6 21.89 8.38 22.44Q10.15 22.99 11.88 22.97Q13.61 22.94 14.78 22.49Q15.82 22.13 16.8 21.54Q17.78 20.95 18.65 20.04Q18.77 19.9 18.77 19.72Q18.77 19.54 18.64 19.4Q18.5 19.27 18.31 19.27L14.88 19.27Q14.69 19.27 14.56 19.4Q14.42 19.54 14.42 19.7L14.42 21.05Z" fill="rgba(0,0,0,0.9019607843137255)"></path></g></svg>