<?xml version="1.0" standalone="no"?>
<svg xmlns="http://www.w3.org/2000/svg" width="24" height="24"><rect width="24" height="24" opacity="0"></rect><g><path d="M10.15 18.65Q10.56 18.46 10.8 18.08Q11.04 17.71 11.04 17.26L11.04 6.84Q11.04 6.38 10.8 6Q10.56 5.62 10.15 5.45Q9.74 5.26 9.31 5.3Q8.88 5.35 8.54 5.64L5.11 8.45L2.5 8.45Q1.68 8.45 1.12 9.01Q0.55 9.58 0.55 10.39L0.55 13.68Q0.55 14.5 1.12 15.07Q1.68 15.65 2.5 15.65L5.11 15.65L8.54 18.46Q8.9 18.72 9.34 18.78Q9.77 18.84 10.15 18.65ZM5.64 9.94L9.55 6.84L9.48 17.28L5.64 14.16L2.5 14.16Q2.3 14.16 2.17 14.02Q2.04 13.87 2.04 13.68L2.04 10.39Q2.04 10.2 2.17 10.07Q2.3 9.94 2.5 9.94Z" fill="rgba(0,0,0,0.9019607843137255)"></path><path d="M14.11 9.12Q13.87 8.9 13.57 8.89Q13.27 8.88 13.03 9.1Q12.82 9.31 12.82 9.62Q12.82 9.94 13.03 10.15Q13.39 10.54 13.58 11Q13.78 11.47 13.78 12Q13.78 12.55 13.58 13.03Q13.39 13.51 13.01 13.87Q12.79 14.09 12.79 14.4Q12.79 14.71 13.01 14.93Q13.22 15.17 13.54 15.17Q13.85 15.17 14.06 14.93Q14.64 14.35 14.96 13.6Q15.29 12.84 15.29 12.02Q15.29 11.21 14.98 10.45Q14.66 9.7 14.11 9.12Z" fill="rgba(0,0,0,0.9019607843137255)"></path><path d="M16.94 6.41Q16.73 6.19 16.42 6.19Q16.1 6.19 15.89 6.41Q15.67 6.62 15.67 6.94Q15.67 7.25 15.89 7.46Q16.78 8.35 17.27 9.54Q17.76 10.73 17.76 12Q17.76 13.27 17.28 14.44Q16.8 15.6 15.91 16.51Q15.67 16.73 15.67 17.04Q15.67 17.35 15.91 17.57Q16.13 17.81 16.44 17.81Q16.75 17.81 16.97 17.57Q18.07 16.46 18.67 15.02Q19.27 13.58 19.27 12Q19.27 10.42 18.67 8.96Q18.07 7.51 16.94 6.41Z" fill="rgba(0,0,0,0.9019607843137255)"></path><path d="M20.09 3.89Q19.87 3.67 19.56 3.67Q19.25 3.67 19.03 3.89Q18.82 4.1 18.82 4.42Q18.82 4.73 19.03 4.94Q20.45 6.34 21.2 8.16Q21.96 9.98 21.96 12Q21.96 13.99 21.2 15.82Q20.45 17.64 19.06 19.06Q18.82 19.27 18.83 19.58Q18.84 19.9 19.06 20.11Q19.27 20.33 19.58 20.33Q19.9 20.33 20.11 20.11Q21.7 18.5 22.57 16.39Q23.45 14.28 23.45 12Q23.45 9.7 22.57 7.6Q21.7 5.5 20.09 3.89Z" fill="rgba(0,0,0,0.9019607843137255)"></path></g></svg>