<?xml version="1.0" standalone="no"?>
<svg xmlns="http://www.w3.org/2000/svg" width="24" height="24"><rect width="24" height="24" opacity="0"></rect><g><path d="M12 1.01Q11.69 1.01 11.47 1.22Q11.26 1.44 11.26 1.75L11.26 5.66Q11.26 5.98 11.47 6.19Q11.69 6.41 12 6.41Q12.31 6.41 12.53 6.19Q12.74 5.98 12.74 5.66L12.74 2.52Q15.17 2.71 17.17 4.02Q19.18 5.33 20.34 7.44Q21.5 9.55 21.5 12Q21.5 14.57 20.22 16.75Q18.94 18.94 16.75 20.22Q14.57 21.5 12 21.5Q9.43 21.5 7.25 20.22Q5.06 18.94 3.78 16.75Q2.5 14.57 2.5 12Q2.5 10.08 3.22 8.35Q3.94 6.62 5.28 5.28Q5.5 5.06 5.5 4.75Q5.5 4.44 5.28 4.2Q5.06 4.01 4.75 4.01Q4.44 4.01 4.2 4.2Q2.66 5.78 1.84 7.79Q1.01 9.79 1.01 12Q1.01 14.98 2.48 17.51Q3.96 20.04 6.49 21.52Q9.02 22.99 12 22.99Q14.98 22.99 17.5 21.52Q20.02 20.04 21.5 17.51Q22.99 14.98 22.99 12Q22.99 9.02 21.5 6.49Q20.02 3.96 17.5 2.48Q14.98 1.01 12 1.01Z" fill="rgba(0,0,0,0.9019607843137255)"></path><path d="M11.28 12.67Q11.54 13.01 11.99 13.03Q12.43 13.06 12.74 12.74Q13.06 12.43 13.03 11.99Q13.01 11.54 12.67 11.28L7.9 7.18Q7.73 7.03 7.54 7.03Q7.34 7.03 7.18 7.18Q7.06 7.34 7.04 7.55Q7.03 7.75 7.18 7.9L11.28 12.67Z" fill="rgba(0,0,0,0.9019607843137255)"></path></g></svg>