<?xml version="1.0" standalone="no"?>
<svg xmlns="http://www.w3.org/2000/svg" width="24" height="24"><rect width="24" height="24" opacity="0"></rect><g><path d="M20.02 21Q20.83 21 21.52 20.59Q22.2 20.18 22.61 19.5Q23.02 18.82 23.02 18L23.02 6Q23.02 5.18 22.61 4.5Q22.2 3.82 21.52 3.41Q20.83 3 20.02 3L4.01 3Q3.19 3 2.5 3.41Q1.8 3.82 1.4 4.5Q1.01 5.18 1.01 6L1.01 18Q1.01 18.82 1.4 19.5Q1.8 20.18 2.5 20.59Q3.19 21 4.01 21L20.02 21ZM3.12 8.5Q2.88 8.5 2.7 8.32Q2.52 8.14 2.52 7.9L2.52 6Q2.52 5.38 2.95 4.93Q3.38 4.49 4.01 4.49L5.02 4.49Q5.23 4.49 5.38 4.63Q5.52 4.78 5.52 4.99L5.52 7.9Q5.52 8.14 5.35 8.32Q5.18 8.5 4.92 8.5L3.12 8.5ZM4.92 15.48Q5.16 15.48 5.34 15.66Q5.52 15.84 5.52 16.08L5.52 18.98Q5.52 19.2 5.38 19.34Q5.23 19.49 5.02 19.49L4.01 19.49Q3.41 19.49 2.96 19.04Q2.52 18.6 2.52 18L2.52 16.08Q2.52 15.84 2.7 15.66Q2.88 15.48 3.12 15.48L4.92 15.48ZM3.12 13.99Q2.88 13.99 2.7 13.81Q2.52 13.63 2.52 13.39L2.52 10.58Q2.52 10.34 2.7 10.16Q2.88 9.98 3.12 9.98L4.92 9.98Q5.16 9.98 5.34 10.16Q5.52 10.34 5.52 10.58L5.52 13.39Q5.52 13.63 5.35 13.81Q5.18 13.99 4.92 13.99L3.12 13.99ZM19.13 8.5Q18.86 8.5 18.7 8.32Q18.53 8.14 18.53 7.87L18.53 4.99Q18.53 4.78 18.67 4.63Q18.82 4.49 19.03 4.49L20.04 4.49Q20.66 4.49 21.1 4.92Q21.53 5.35 21.53 5.98L21.53 7.87Q21.53 8.14 21.35 8.32Q21.17 8.5 20.93 8.5L19.13 8.5ZM20.93 15.48Q21.17 15.48 21.35 15.66Q21.53 15.84 21.53 16.08L21.53 18Q21.53 18.62 21.08 19.06Q20.64 19.49 20.02 19.49L19.01 19.49Q18.82 19.49 18.67 19.34Q18.53 19.2 18.53 18.98L18.53 16.08Q18.53 15.84 18.71 15.66Q18.89 15.48 19.13 15.48L20.93 15.48ZM19.13 13.99Q18.89 13.99 18.71 13.81Q18.53 13.63 18.53 13.39L18.53 10.58Q18.53 10.34 18.71 10.16Q18.89 9.98 19.13 9.98L20.93 9.98Q21.17 9.98 21.35 10.16Q21.53 10.34 21.53 10.58L21.53 13.39Q21.53 13.63 21.35 13.81Q21.17 13.99 20.93 13.99L19.13 13.99ZM17.04 4.49L17.04 10.63L17.04 11.23L17.04 19.49L7.01 19.49L7.01 11.23L7.01 10.63L7.01 4.49ZM11.02 9.6Q10.82 9.48 10.6 9.52Q10.37 9.55 10.22 9.72Q10.08 9.89 10.08 10.13L10.08 13.87Q10.08 14.11 10.22 14.28Q10.37 14.45 10.6 14.5Q10.82 14.54 11.02 14.42L14.26 12.55Q14.47 12.43 14.54 12.22Q14.62 12 14.54 11.78Q14.47 11.57 14.26 11.47L11.02 9.6Z" fill="rgba(0,0,0,0.9019607843137255)"></path></g></svg>